Coordinates
version=1
nRows=63
nColumns=24
inDegrees=no

Units are S.I. units (second, meters, Newtons, ...)
If the header above contains a line with 'inDegrees', this indicates whether rotational values are in degrees (yes) or radians (no).

endheader
time	pelvis_tilt	pelvis_list	pelvis_rotation	pelvis_tx	pelvis_ty	pelvis_tz	hip_flexion_r	hip_adduction_r	hip_rotation_r	knee_angle_r	ankle_angle_r	subtalar_angle_r	mtp_angle_r	hip_flexion_l	hip_adduction_l	hip_rotation_l	knee_angle_l	ankle_angle_l	subtalar_angle_l	mtp_angle_l	lumbar_extension	lumbar_bending	lumbar_rotation
0.005	0.0820052	-0.0538265	-0.255936	0.0247235	0.958166	-0.352592	-0.14478	-0.0394891	-0.208262	-0.71369	0.309553	0.184175	0	0.320431	-0.0169669	-0.403742	-0.405792	0.0749773	-0.456095	0	0	0	0
0.01	0.0800395	-0.0521201	-0.250023	0.0292119	0.958468	-0.35257	-0.137285	-0.0425602	-0.208379	-0.729178	0.285909	0.182942	0	0.319983	-0.0126298	-0.392805	-0.407974	0.0807584	-0.457063	0	0	0	0
0.015	0.0784602	-0.0508089	-0.24497	0.0335869	0.958603	-0.352565	-0.129177	-0.0461459	-0.209065	-0.746675	0.264856	0.183762	0	0.319182	-0.0101216	-0.388553	-0.411414	0.0872125	-0.453895	0	0	0	0
0.02	0.0787485	-0.0498604	-0.240128	0.0380111	0.958813	-0.352549	-0.123236	-0.0503349	-0.21049	-0.763991	0.245577	0.185841	0	0.316611	-0.00759922	-0.383449	-0.415668	0.0932113	-0.452134	0	0	0	0
0.025	0.078629	-0.0494804	-0.235709	0.0423313	0.958941	-0.352576	-0.116129	-0.0543736	-0.211558	-0.782475	0.227111	0.189332	0	0.31472	-0.00544619	-0.376352	-0.420046	0.0992097	-0.452312	0	0	0	0
0.03	0.0776203	-0.0479372	-0.231061	0.0467287	0.959001	-0.352705	-0.107279	-0.0601451	-0.213562	-0.801953	0.208577	0.195648	0	0.313527	-0.00208614	-0.370734	-0.423018	0.104193	-0.452645	0	0	0	0
0.035	0.077651	-0.0462697	-0.226115	0.0511893	0.959168	-0.352807	-0.0996353	-0.0663995	-0.216249	-0.820967	0.189275	0.201211	0	0.310976	0.00147566	-0.366391	-0.425957	0.111011	-0.450062	0	0	0	0
0.04	0.0785233	-0.0443254	-0.222643	0.0555943	0.959354	-0.352837	-0.0922929	-0.0734319	-0.217374	-0.840168	0.169556	0.204989	0	0.307251	0.00516255	-0.363427	-0.428589	0.118319	-0.4472	0	0	0	0
0.045	0.0790285	-0.0429031	-0.219985	0.059902	0.959491	-0.352773	-0.0841113	-0.0796765	-0.216894	-0.85966	0.150294	0.206668	0	0.303736	0.00805092	-0.360778	-0.430848	0.125151	-0.445484	0	0	0	0
0.05	0.0800307	-0.0418319	-0.218105	0.0641114	0.959608	-0.352717	-0.0757414	-0.0859235	-0.215341	-0.879893	0.131832	0.209179	0	0.299618	0.0106334	-0.35879	-0.433142	0.131563	-0.444939	0	0	0	0
0.055	0.080662	-0.0404074	-0.214951	0.0682199	0.959792	-0.352721	-0.0668319	-0.0921904	-0.214732	-0.899619	0.111886	0.212232	0	0.295517	0.0135476	-0.357815	-0.434271	0.13675	-0.44316	0	0	0	0
0.06	0.0817741	-0.0392333	-0.21191	0.0721818	0.960007	-0.352765	-0.0581705	-0.0981587	-0.213541	-0.918967	0.090829	0.213592	0	0.290838	0.0167107	-0.355446	-0.434851	0.141534	-0.44315	0	0	0	0
0.065	0.0819757	-0.0374567	-0.209747	0.0762386	0.960236	-0.352625	-0.0485458	-0.10411	-0.210902	-0.937521	0.0697063	0.215214	0	0.286686	0.0196264	-0.355858	-0.435249	0.146823	-0.440842	0	0	0	0
0.07	0.0828207	-0.0361173	-0.206959	0.0801433	0.960488	-0.352555	-0.0392752	-0.10963	-0.208542	-0.956421	0.0496238	0.217973	0	0.282031	0.0224903	-0.354822	-0.435439	0.152995	-0.438034	0	0	0	0
0.075	0.0843051	-0.0344619	-0.203753	0.0840705	0.960748	-0.352544	-0.0305868	-0.115914	-0.207216	-0.975209	0.0300998	0.218554	0	0.276415	0.0261235	-0.353448	-0.435168	0.158451	-0.436196	0	0	0	0
0.08	0.0854217	-0.032772	-0.200503	0.0878694	0.961037	-0.352534	-0.0211114	-0.122017	-0.205582	-0.993739	0.0100333	0.214159	0	0.271187	0.0298769	-0.351418	-0.434171	0.160726	-0.437799	0	0	0	0
0.085	0.086126	-0.0310277	-0.197006	0.091769	0.96137	-0.35243	-0.0112925	-0.127923	-0.20401	-1.01197	-0.0107715	0.215568	0	0.265919	0.0331673	-0.349798	-0.432938	0.164403	-0.435698	0	0	0	0
0.09	0.0869764	-0.0302435	-0.192428	0.09548	0.961726	-0.352318	-0.00173886	-0.132457	-0.203246	-1.02965	-0.0326236	0.216413	0	0.261106	0.0356367	-0.345367	-0.432697	0.168677	-0.433595	0	0	0	0
0.095	0.0885718	-0.0301503	-0.187303	0.0991841	0.962204	-0.35225	0.00647475	-0.136002	-0.202508	-1.04602	-0.0506829	0.215413	0	0.255162	0.0375388	-0.341709	-0.432034	0.173298	-0.43044	0	0	0	0
0.1	0.0901821	-0.0296999	-0.181561	0.102948	0.96271	-0.352193	0.014227	-0.13961	-0.202385	-1.06107	-0.0683533	0.213541	0	0.249096	0.0395866	-0.339234	-0.431382	0.178157	-0.425524	0	0	0	0
0.105	0.0919347	-0.0289696	-0.175378	0.106835	0.963207	-0.352178	0.0213309	-0.143669	-0.203206	-1.07505	-0.0837422	0.211905	0	0.242976	0.0418061	-0.337125	-0.431364	0.183265	-0.419639	0	0	0	0
0.11	0.0941059	-0.028622	-0.168262	0.110805	0.963751	-0.352256	0.0276417	-0.147819	-0.205139	-1.08878	-0.0920156	0.211035	0	0.23618	0.0440969	-0.333163	-0.430884	0.187371	-0.415473	0	0	0	0
0.115	0.0965599	-0.0290034	-0.159858	0.114623	0.964438	-0.352373	0.0334124	-0.151049	-0.208049	-1.10147	-0.0975647	0.207339	0	0.228909	0.0458567	-0.327417	-0.429764	0.190983	-0.411025	0	0	0	0
0.12	0.0979335	-0.0287579	-0.151998	0.118178	0.96499	-0.352398	0.0408058	-0.154192	-0.210172	-1.11366	-0.0986739	0.199662	0	0.22297	0.0477955	-0.322259	-0.428233	0.194354	-0.406454	0	0	0	0
0.125	0.09949	-0.0278666	-0.144832	0.121681	0.965432	-0.352332	0.0479222	-0.157796	-0.212045	-1.12506	-0.0935122	0.188231	0	0.216792	0.0501377	-0.318078	-0.426566	0.198233	-0.401476	0	0	0	0
0.13	0.101938	-0.0282663	-0.135988	0.125482	0.966127	-0.352478	0.052426	-0.16001	-0.215221	-1.13425	-0.0817069	0.175046	0	0.208789	0.0516883	-0.312458	-0.424209	0.202476	-0.395678	0	0	0	0
0.135	0.104071	-0.0278011	-0.126366	0.129157	0.966822	-0.352741	0.0574135	-0.163425	-0.219482	-1.14331	-0.0656334	0.16057	0	0.201328	0.0543956	-0.305711	-0.421441	0.205517	-0.391259	0	0	0	0
0.14	0.106142	-0.0274043	-0.11682	0.132695	0.967495	-0.352891	0.0621776	-0.166447	-0.2241	-1.15075	-0.0501891	0.143426	0	0.193979	0.0565462	-0.300146	-0.418512	0.208549	-0.386034	0	0	0	0
0.145	0.107682	-0.0280415	-0.107212	0.136266	0.968061	-0.353037	0.06717	-0.168085	-0.228607	-1.15681	-0.0354091	0.122853	0	0.187182	0.0573671	-0.294268	-0.415752	0.211304	-0.381835	0	0	0	0
0.15	0.108978	-0.0296323	-0.0965563	0.139646	0.968582	-0.353273	0.0724123	-0.168397	-0.233795	-1.1622	-0.0193194	0.102641	0	0.181459	0.0574842	-0.285145	-0.413743	0.214624	-0.379033	0	0	0	0
0.155	0.110217	-0.0307391	-0.0865273	0.142971	0.969161	-0.353497	0.0779408	-0.168525	-0.237306	-1.16662	-0.00100704	0.0817658	0	0.175628	0.0575479	-0.278685	-0.411864	0.217649	-0.374321	0	0	0	0
0.16	0.111941	-0.030868	-0.0765567	0.146379	0.969821	-0.353696	0.0828982	-0.170061	-0.240846	-1.17037	0.0168074	0.0615818	0	0.168902	0.0581359	-0.274961	-0.410013	0.220434	-0.367329	0	0	0	0
0.165	0.113545	-0.0311378	-0.0667552	0.149622	0.970583	-0.353862	0.0881641	-0.171428	-0.243986	-1.17299	0.0327344	0.0419719	0	0.162146	0.0582725	-0.271671	-0.407861	0.223973	-0.358054	0	0	0	0
0.17	0.114243	-0.0314114	-0.0557123	0.15286	0.971192	-0.354065	0.093783	-0.172881	-0.248522	-1.17432	0.0465399	0.0238655	0	0.156798	0.058779	-0.264749	-0.405476	0.226239	-0.352523	0	0	0	0
0.175	0.114937	-0.031197	-0.0452791	0.155837	0.971833	-0.354228	0.0999746	-0.174094	-0.251211	-1.17466	0.0583824	0.00540946	0	0.151456	0.0594188	-0.259651	-0.403135	0.229066	-0.344489	0	0	0	0
0.18	0.115825	-0.0313477	-0.0343527	0.158888	0.972421	-0.354327	0.105377	-0.174928	-0.254746	-1.17368	0.0686723	-0.0129204	0	0.14586	0.0596602	-0.253755	-0.4004	0.231806	-0.337547	0	0	0	0
0.185	0.117361	-0.0321084	-0.0231363	0.162093	0.973038	-0.354508	0.109365	-0.175356	-0.258666	-1.17118	0.0770614	-0.0297868	0	0.139176	0.0594995	-0.24734	-0.39673	0.234729	-0.331717	0	0	0	0
0.19	0.1174	-0.032138	-0.0122281	0.165314	0.973649	-0.354754	0.115069	-0.176398	-0.261328	-1.16798	0.0862146	-0.0458501	0	0.133521	0.0598661	-0.242202	-0.392462	0.237724	-0.323514	0	0	0	0
0.195	0.117509	-0.0330207	-0.00200699	0.168116	0.974134	-0.354956	0.121584	-0.176165	-0.262526	-1.16458	0.0994845	-0.0628016	0	0.129208	0.0593882	-0.235701	-0.389469	0.238189	-0.320711	0	0	0	0
0.2	0.117656	-0.0336462	0.00995493	0.171026	0.974593	-0.355156	0.126869	-0.176632	-0.266291	-1.15969	0.112232	-0.0774651	0	0.125077	0.0587742	-0.228608	-0.387227	0.239762	-0.315306	0	0	0	0
0.205	0.11889	-0.0337824	0.0214552	0.173951	0.975193	-0.355345	0.130931	-0.177429	-0.269023	-1.15366	0.123132	-0.0900853	0	0.119314	0.0582369	-0.223581	-0.384736	0.241617	-0.307568	0	0	0	0
0.21	0.119426	-0.0330933	0.0328572	0.177007	0.9758	-0.355579	0.135314	-0.179023	-0.271363	-1.14648	0.134111	-0.102641	0	0.113583	0.0582809	-0.220124	-0.381439	0.245627	-0.294737	0	0	0	0
0.215	0.120136	-0.0340777	0.0434287	0.179727	0.97649	-0.355588	0.140199	-0.177808	-0.27202	-1.13811	0.144137	-0.116154	0	0.108516	0.0562472	-0.2162	-0.378754	0.248688	-0.284049	0	0	0	0
0.22	0.121065	-0.0354114	0.0547671	0.182502	0.977094	-0.3556	0.144287	-0.176595	-0.273928	-1.12875	0.152771	-0.126907	0	0.103666	0.0538578	-0.210921	-0.376747	0.250561	-0.276526	0	0	0	0
0.225	0.122171	-0.0373006	0.0659128	0.185202	0.977614	-0.355627	0.148192	-0.174487	-0.275082	-1.11838	0.160729	-0.137605	0	0.0994076	0.050504	-0.20712	-0.375977	0.25507	-0.265652	0	0	0	0
0.23	0.12279	-0.0388937	0.0774742	0.188039	0.977976	-0.355802	0.152082	-0.173032	-0.276484	-1.10726	0.170449	-0.146972	0	0.0958218	0.0477736	-0.202841	-0.375409	0.25914	-0.256941	0	0	0	0
0.235	0.123894	-0.0387508	0.0895932	0.191067	0.978411	-0.356057	0.154478	-0.17384	-0.278654	-1.09496	0.180069	-0.15417	0	0.0905489	0.046739	-0.198829	-0.373362	0.262453	-0.247144	0	0	0	0
0.24	0.124072	-0.0382563	0.102328	0.194121	0.978785	-0.356313	0.157464	-0.175527	-0.281871	-1.08198	0.190674	-0.15849	0	0.0863724	0.0463217	-0.193244	-0.371146	0.264715	-0.239673	0	0	0	0
0.245	0.124571	-0.0390338	0.112861	0.196486	0.979271	-0.356253	0.162237	-0.174523	-0.281346	-1.06879	0.198132	-0.16228	0	0.0828318	0.0442724	-0.188032	-0.369374	0.266102	-0.233784	0	0	0	0
0.25	0.12487	-0.0397803	0.123962	0.199016	0.979686	-0.356226	0.166402	-0.173423	-0.281119	-1.05414	0.2037	-0.166592	0	0.0793781	0.0419479	-0.182911	-0.367981	0.269087	-0.224406	0	0	0	0
0.255	0.125509	-0.0408435	0.134994	0.201646	0.980184	-0.356181	0.169809	-0.171485	-0.27982	-1.03821	0.207592	-0.171397	0	0.0755317	0.0389069	-0.179026	-0.366592	0.273115	-0.212552	0	0	0	0
0.26	0.124702	-0.0409694	0.145212	0.204271	0.980521	-0.356105	0.174927	-0.170911	-0.277428	-1.02226	0.211539	-0.175637	0	0.0730453	0.0373507	-0.175189	-0.364617	0.275745	-0.204418	0	0	0	0
0.265	0.123396	-0.0398508	0.156398	0.20696	0.980722	-0.356231	0.179416	-0.172434	-0.276656	-1.00535	0.219003	-0.177923	0	0.0703425	0.037402	-0.170068	-0.361924	0.277085	-0.197202	0	0	0	0
0.27	0.122988	-0.0388641	0.168353	0.20965	0.98096	-0.356406	0.182384	-0.173834	-0.27676	-0.987338	0.227219	-0.178535	0	0.066861	0.0371886	-0.163956	-0.359445	0.27726	-0.191409	0	0	0	0
0.275	0.124829	-0.0385443	0.178699	0.212082	0.981354	-0.356357	0.183717	-0.173271	-0.274237	-0.968464	0.231923	-0.180462	0	0.0619596	0.0353828	-0.160067	-0.358167	0.279804	-0.182487	0	0	0	0
0.28	0.124323	-0.0380464	0.188227	0.214703	0.981531	-0.356229	0.187387	-0.173209	-0.270692	-0.949406	0.234131	-0.182147	0	0.0596362	0.0343736	-0.155514	-0.357285	0.281312	-0.177055	0	0	0	0
0.285	0.123183	-0.0378788	0.198084	0.21705	0.981676	-0.356021	0.191796	-0.172581	-0.266605	-0.929288	0.234024	-0.187327	0	0.0589335	0.0332026	-0.149875	-0.357279	0.283835	-0.171494	0	0	0	0
0.29	0.121668	-0.0370125	0.207981	0.219605	0.981797	-0.355883	0.195764	-0.1731	-0.262976	-0.908219	0.235061	-0.190335	0	0.0576273	0.031912	-0.148339	-0.356818	0.287565	-0.159156	0	0	0	0
0.295	0.120171	-0.0364437	0.218334	0.222322	0.98179	-0.35588	0.198799	-0.173603	-0.260484	-0.886141	0.237476	-0.191895	0	0.0563122	0.0304209	-0.146192	-0.356241	0.290523	-0.148775	0	0	0	0
0.3	0.118912	-0.0363423	0.22901	0.224977	0.981764	-0.355892	0.2015	-0.17362	-0.257719	-0.863812	0.236977	-0.192449	0	0.0551635	0.0287651	-0.141376	-0.356022	0.294504	-0.139746	0	0	0	0
0.305	0.117516	-0.0360564	0.239659	0.227414	0.981701	-0.355841	0.204666	-0.173901	-0.253939	-0.84168	0.236554	-0.192268	0	0.0548038	0.0276354	-0.135618	-0.356012	0.297063	-0.134029	0	0	0	0
0.31	0.116633	-0.0348698	0.249854	0.229866	0.981657	-0.355746	0.206623	-0.174974	-0.250506	-0.818557	0.239209	-0.192781	0	0.0534218	0.0278283	-0.127685	-0.355686	0.299054	-0.131758	0	0	0	0
0.315	0.115662	-0.0333232	0.260277	0.232369	0.981721	-0.355622	0.208066	-0.17658	-0.247471	-0.794471	0.241348	-0.193778	0	0.0517536	0.0276149	-0.122681	-0.355411	0.301431	-0.124345	0	0	0	0
